<?xml version="1.0" encoding="utf-8"?>
<!-- Generator: Adobe Illustrator 16.0.0, SVG Export Plug-In . SVG Version: 6.00 Build 0)  -->
<!DOCTYPE svg PUBLIC "-//W3C//DTD SVG 1.1//EN" "http://www.w3.org/Graphics/SVG/1.1/DTD/svg11.dtd">
<svg version="1.1" id="Layer_1" xmlns="http://www.w3.org/2000/svg" xmlns:xlink="http://www.w3.org/1999/xlink" x="0px" y="0px"
	 width="1000px" height="209.718px" viewBox="0 0 1000 209.718" style="enable-background:new 0 0 1000 209.718;"
	 xml:space="preserve">
<style type="text/css">
<![CDATA[
	.st0{fill:none;stroke:#000000;stroke-width:7;stroke-linejoin:round;stroke-miterlimit:10;}
	.st1{fill:none;stroke:#000000;stroke-width:7;stroke-linecap:round;stroke-miterlimit:10;}
	.st2{fill:none;stroke:#000000;stroke-width:7;stroke-miterlimit:10;}
]]>
</style>
<g>
	<g>
		<circle class="st1" cx="301.384" cy="149.968" r="56.25"/>
		<circle class="st1" cx="702.384" cy="149.968" r="56.25"/>
		<path class="st1" d="M764.384,187.718c0,0,38.294-2.545,51-4c6.656-0.763,20.336-1.374,26.5-4c1.886-0.804,5.137-3.469,6.5-5
			c0.97-1.089,3.258-3.565,3-5c-0.283-1.575-4.503-2.479-5-4c-1.489-4.554,4.369-13.751,5-18.5c0.592-4.461,1.722-13.843,0-18
			c-1.353-3.267-7.138-7.924-10-10c-7.603-5.514-25.239-12.533-33.5-17c-5.073-2.743-14.992-8.639-20-11.5
			c-4.617-2.638-13.642-8.337-18.5-10.5c-4.333-1.93-13.354-5.048-18-6c-13.394-2.744-40.868-3.46-54.5-4.5
			c-13.619-1.039-41.323-0.226-54.5-3.819c-13.88-3.786-38.66-19.19-51.5-25.681c-10.028-5.07-29.871-15.635-40-20.5
			c-6.052-2.907-18.097-8.98-24.5-11c-5.704-1.8-17.545-3.936-23.5-4.5c-14.062-1.334-42.383-0.49-56.5,0
			c-14.401,0.5-43.24,1.932-57.5,4c-11.405,1.654-33.824,7.189-45,10c-16.119,4.055-48.08,13.225-64,18
			c-17.342,5.201-51.878,16.114-69,22c-10.584,3.639-32.083,10.311-42,15.5c-1.352,0.707-3.991,2.355-5,3.5
			c-1.774,2.014-3.573,7.227-5,9.5c-1.9,3.028-6.993,8.258-8.5,11.5c-1.137,2.447-2.186,7.82-2.5,10.5c-0.379,3.228,0,9.75,0,13
			c0,3.125,0,9.375,0,12.5c0,2.875-0.408,8.654,0,11.5c0.758,5.286,2.335,16.615,6,20.5c2.55,2.703,10.382,4.149,14,5
			c16.421,3.861,67,8,67,8"/>
	</g>
</g>
</svg>
